<svg width="116" height="116" viewBox="0 0 116 116" fill="none" xmlns="http://www.w3.org/2000/svg">
<path d="M44.3242 19.3334C46.3147 13.7017 51.6859 9.66675 57.9992 9.66675C64.3125 9.66675 69.6838 13.7017 71.6741 19.3334" stroke="#A8A8A8" stroke-width="7" stroke-linecap="round"/>
<path d="M58 107.542C55.998 107.542 54.375 109.165 54.375 111.167C54.375 113.169 55.998 114.792 58 114.792V107.542ZM38.448 114.471C40.4464 114.592 42.1643 113.07 42.285 111.072C42.4058 109.073 40.8837 107.356 38.8853 107.235L38.448 114.471ZM10.875 62.8333C10.875 71.8914 10.871 81.3483 11.6906 89.2542C12.1011 93.2137 12.731 96.9315 13.7302 100.101C14.7132 103.219 16.1646 106.171 18.4621 108.213L23.2787 102.795C22.391 102.005 21.4536 100.487 20.6448 97.9213C19.8523 95.407 19.2878 92.2286 18.902 88.507C18.129 81.0501 18.125 72.0026 18.125 62.8333H10.875ZM58 114.792C68.1616 114.792 76.1076 114.798 82.2957 114.058C88.5486 113.311 93.5579 111.751 97.5381 108.213L92.7212 102.795C90.3306 104.92 87.028 106.191 81.4354 106.86C75.778 107.535 68.3443 107.542 58 107.542V114.792ZM38.8853 107.235C30.5998 106.734 26.2522 105.438 23.2787 102.795L18.4621 108.213C23.3728 112.578 29.8831 113.954 38.448 114.471L38.8853 107.235ZM97.8745 64.7052C97.8711 73.556 97.8126 82.1821 97.0166 89.2585C96.6193 92.7912 96.0519 95.7971 95.2742 98.1731C94.482 100.594 93.5757 102.035 92.7212 102.795L97.5381 108.213C99.7595 106.239 101.187 103.415 102.165 100.428C103.157 97.3959 103.796 93.8492 104.221 90.0691C105.07 82.5199 105.121 73.4821 105.125 64.7081L97.8745 64.7052Z" fill="#A8A8A8"/>
<path d="M70.8594 72.4999L85.3773 68.7135M45.1431 72.4999L16.1079 64.9271C13.2297 64.1764 11.7905 63.8009 10.8773 62.9014C10.6995 62.726 10.5387 62.5384 10.3967 62.3398C9.66797 61.3209 9.66797 60.0145 9.66797 57.402C9.66797 47.1065 9.66797 41.9587 12.9207 38.4832C13.5459 37.8152 14.2482 37.2046 15.0165 36.6611C19.0142 33.8333 24.9354 33.8333 36.7778 33.8333H79.225C91.0671 33.8333 96.9884 33.8333 100.986 36.6611C101.755 37.2046 102.457 37.8152 103.082 38.4832C106.335 41.9587 106.335 47.1065 106.335 57.402C106.335 60.0145 106.335 61.3209 105.606 62.3398C105.464 62.5384 105.303 62.726 105.125 62.9014C104.401 63.6153 103.345 63.9991 101.501 64.5022" stroke="#A8A8A8" stroke-width="7" stroke-linecap="round"/>
<path d="M67.668 65.25H48.3346C47 65.25 45.918 66.3322 45.918 67.6667V78.1139C45.918 79.1019 46.5196 79.9907 47.4371 80.3575L50.8209 81.7114C55.4305 83.5548 60.5722 83.5548 65.1817 81.7114L68.5655 80.3575C69.4829 79.9907 70.0846 79.1019 70.0846 78.1139V67.6667C70.0846 66.3322 69.0025 65.25 67.668 65.25Z" stroke="#A8A8A8" stroke-width="5" stroke-linecap="round"/>
</svg>
