<svg width="116" height="116" viewBox="0 0 116 116" fill="none" xmlns="http://www.w3.org/2000/svg">
<path d="M58.0013 48.3335C68.6788 48.3335 77.3347 39.6776 77.3347 29.0001C77.3347 18.3226 68.6788 9.66675 58.0013 9.66675C47.3238 9.66675 38.668 18.3226 38.668 29.0001C38.668 39.6776 47.3238 48.3335 58.0013 48.3335Z" stroke="#0097A8" stroke-width="7"/>
<path d="M72.5012 99.6399C68.1063 100.833 63.1903 101.5 58.0013 101.5C39.3157 101.5 24.168 92.8442 24.168 82.1669C24.168 71.4895 39.3157 62.8335 58.0013 62.8335C76.6869 62.8335 91.8345 71.4895 91.8345 82.1669C91.8345 83.8358 91.4643 85.4555 90.7688 87.0002" stroke="#0097A8" stroke-width="7" stroke-linecap="round"/>
</svg>
